<?xml version="1.0"?>
<svg xmlns="http://www.w3.org/2000/svg" xmlns:xlink="http://www.w3.org/1999/xlink" xmlns:svgjs="http://svgjs.com/svgjs" version="1.1" width="512" height="512" x="0" y="0" viewBox="0 0 60 60" style="enable-background:new 0 0 512 512" xml:space="preserve" class=""><g><g xmlns="http://www.w3.org/2000/svg" id="Page-1" fill="none" fill-rule="evenodd"><g id="010---Turtle" fill="rgb(0,0,0)" fill-rule="nonzero"><path id="Shape" d="m2.011 41.6c1.147 0 2.422-1.136 3.582-2.171.63640118-.646634 1.36495256-1.1955749 2.162-1.629.10115098-.0262103.20409665-.0449277.308-.056-.1930296 2.5906659.17078936 5.1926364 1.067 7.631-1.322 1.717-3.03 4.563-2.355 7.138.09181513.3482243.36377573.6201849.712.712.39900458.103729.80973536.1554905 1.222.154 2.221 0 4.472-1.4 5.919-2.512 2.0402203.7705366 4.2084997 1.1455481 6.389 1.105.406 0 .82-.017 1.235-.037-.0109187.1056445-.0299753.2102886-.057.313-.4334919.7964049-.9824362 1.5242868-1.629 2.16-1.42 1.594-3.032 3.4-1.63 4.8.7555343.5920818 1.7077172.8751632 2.664.792.8774941-.0136372 1.7513252-.1165 2.608-.307 2.1145112-.3841325 4.0865577-1.3306043 5.709-2.74 1.243-1.243 1.8-3.576 1.688-6.916 4.813254-1.582506 9.2196368-4.2040767 12.907-7.679.577-.577 1.089-1.161 1.569-1.747.1767736.1294339.3052398.314214.365.525.1786056 1.2500001-.2823137 2.5061647-1.227 3.344-2.713 2.713-4.254 6.615-3.508 8.889.1617766.6108584.6409913 1.086631 1.253 1.244.1290427.0309134.2613066.0463554.394.046 1.58 0 3.689-2.108 8.67-7.089 6.075-6.075 2.576-13.5-.071-16.15-.6482517-.7019238-1.4917991-1.1937029-2.422-1.412-.4159977-2.7483348-1.4841174-5.3570845-3.115-7.608 1.664-.841 3.5-1.809 4.085-3.611.491-1.53 1.921-6.7-.337-8.954s-7.424-.835-8.954-.34c-1.8.581-2.77 2.42-3.611 4.085-2.2543209-1.6336625-4.8678846-2.7022709-7.621-3.116-.2145304-.92865969-.7021231-1.77184678-1.4-2.421-2.649-2.643-10.082-6.143-16.152-.071-5.405 5.405-7.43 7.428-7.042 9.065.15854001.6142515.63725774 1.0944999 1.251 1.255.41480842.1295037.84748224.192616 1.282.187 2.276 0 5.348-1.446 7.6-3.7.8382546-.9440711 2.094078-1.4048651 3.344-1.227.2108934.0600928.395671.1889091.525.366-.6085557.4930452-1.1916422 1.0167216-1.747 1.569-3.4752395 3.6847826-6.0975169 8.0888158-7.681 12.9-3.345-.113-5.672.447-6.914 1.689-2.661 2.667-4.01 9.235-2.257 10.988.31510904.3396021.75673156.5336264 1.22.536zm10.069-13.24 1.838.612c-.6681485 1.786018-1.1817016 3.6261102-1.535 5.5l-2.05.41c.3732036-2.2246962.9581971-4.4086273 1.747-6.522zm16.364-15.978c1.0595819.0069606 2.1130325.1614442 3.13.459l-.391 1.959c-2.1813304-.7121337-4.5542088-.5471513-6.616.46l-.726-1.821c1.438249-.6856395 3.0097168-1.0465001 4.603-1.057zm18.02 14.144-2.017.4c-1.0964543-2.1251466-2.5129875-4.0691699-4.2-5.764l1.415-1.416c1.9721547 1.9725262 3.5958043 4.264976 4.802 6.78zm.095 9.631-1.817-.725c.5445967-1.1214167.8468265-2.3449876.887-3.591.0158742-1.0241569-.1316441-2.044295-.437-3.022l1.955-.39c.7659237 2.5601309.5564493 5.3132236-.588 7.728zm-15.537 9.909.618 1.854c-2.1120968.7885052-4.2946721 1.3734943-6.518 1.747l.408-2.044c.508-.1 1.024-.208 1.552-.336 1.3362939-.3288335 2.6519321-.7365478 3.94-1.221zm1.856-.756c1.6951163-.7422968 3.3248513-1.625739 4.872-2.641l1.437 1.436c-1.7988507 1.1927697-3.7023398 2.2196563-5.687 3.068zm-6.269.033c-.22.054-.436.1-.653.148l1.03-5.159 6.622-1.8 2.7 2.7c-2.9896509 1.8853629-6.2651203 3.2736973-9.699 4.111zm-14.57 1.2c-1.742-2.3-2.3-5.748-1.969-9.576l2-.4c-.371 3.489.039 6.577 1.4 8.545zm2.093-10.387 6.009-1.2 4.9 4.9-1.2 6.016c-3.816.526-6.886.039-8.32-1.4-1.469-1.459-1.887-4.607-1.389-8.313zm9.273-9.249 6.667-1.818 4.837 4.836-1.819 6.675-6.666 1.818-4.837-4.836zm19 .426-6.055 1.21-4.9-4.9 1.214-6.072c2.0268829 1.1494483 3.8730938 2.5916425 5.479 4.28 1.6830347 1.6097162 3.1206896 3.4577446 4.267 5.485zm-7.388 9.777 1.807-6.623 6.384-1.275c.2836474.8271616.424326 1.6965957.416 2.571-.059 2.112-1.095 4.065-3.36 6.33-.7151541.7043742-1.4783201 1.3582778-2.284 1.957zm3.822-17.371c-1.6976482-1.6867861-3.6439372-3.1032501-5.771-4.2l.4-1.994c2.513821 1.2011695 4.8053995 2.8205246 6.777 4.789zm-8.056-2.967-1.278 6.4-6.623 1.806-2.968-2.978c.6038663-.8018646 1.262081-1.5613175 1.97-2.273 2.373-2.368 5.097-4.156 8.904-2.952zm-9.315 9.617-1.806 6.622-5.162 1.031c.7980988-3.6797569 2.2355522-7.1909747 4.247-10.374zm-6.8.722-1.84-.611c.8497663-1.9847369 1.8779873-3.8882179 3.072-5.687l1.418 1.419c-1.0198148 1.5492872-1.9060087 3.1825068-2.649 4.882zm-6.043 24.264c.11062124-1.459614.64595307-2.8549529 1.54-4.014.6465885.9883064 1.4952195 1.8284169 2.49 2.465-1.1618214.9013259-2.5635886 1.4401193-4.03 1.549zm4.828-3.415 1.43-1.429c1.833755 1.1280605 3.9669392 1.6724287 6.117 1.561.8129051-.0059149 1.6248418-.0573287 2.432-.154l-.4 1.992c-3.832.333-7.277-.23-9.579-1.97zm15.047 7.579c-2.124 2.124-7.062 2.826-8.062 2.315.4461532-.7718999.9903407-1.4828057 1.619-2.115.8586126-.8234703 1.552037-1.8033607 2.043-2.887.1128775-.3533149.1771341-.7203512.191-1.091 1.8026443-.227047 3.584753-.5948368 5.33-1.1.022 2.381-.371 4.13-1.121 4.878zm14.6-14.595c-.7127068.7068715-1.4692026 1.3681791-2.265 1.98l-1.43-1.43c.8014354-.6049659 1.5630163-1.2609944 2.28-1.964.7417149-.7267017 1.4214127-1.5141075 2.032-2.354l1.858.741c-.718234 1.0917773-1.5476629 2.106194-2.475 3.027zm7.511 5.217c-3.188 3.188-5.973 5.973-7.04 6.432-.328-1.427.8-4.44 3.064-6.7 1.4867447-1.3488271 2.143164-3.3870414 1.723-5.35-.190332-.6158784-.5765754-1.1527566-1.1-1.529 1.4059825-2.0283361 2.2300799-4.4027604 2.383-6.866.336177.1796816.6422036.4108042.907.685 1.732 1.738 5.473 7.915.061 13.328zm-11.292-31.544c.714-1.415 1.453-2.878 2.507-3.218 2.582-.831 5.85-1.232 6.928-.153s.677 4.347-.153 6.927c-.34 1.054-1.8 1.792-3.215 2.507l-.17.087c-1.7675604-2.208898-3.774102-4.2154396-5.983-5.983.029-.057.058-.11.086-.167zm-19.863-2.973c-1.963257-.4201203-4.0017429.2362638-5.351 1.723-2.228 2.229-5.186 3.362-6.694 3.054.474-1.075 3.253-3.855 6.433-7.035 5.407-5.407 11.584-1.667 13.322.071.2741377.26460666.5049573.5706789.684.907-2.4627937.1536032-4.8367176.977647-6.865 2.383-.3759819-.5243328-.9128361-.9116121-1.529-1.103zm-.4 5.259c.9199044-.9294002 1.9340333-1.7605435 3.026-2.48l.744 1.866c-.8405145.6091147-1.6285962 1.2874805-2.356 2.028-.7079622.7113373-1.3693335 1.4675719-1.98 2.264l-1.414-1.414c.6114701-.7967164 1.2727942-1.5538992 1.98-2.267zm-14.595 14.597c.758-.76 2.474-1.146 4.871-1.123-.50310623 1.7453067-.86823098 3.5274632-1.092 5.33-.36989923.0147631-.73615504.0790008-1.089.191-1.08414791.4906596-2.06468958 1.1837251-2.889 2.042-.63178643.6288439-1.34276274 1.1727491-2.115 1.618-.509-1.013.193-5.94 2.314-8.058z" fill="#ffffff" data-original="#000000" style=""/><path id="Shape" d="m54 28c1.6568542 0 3-1.3431458 3-3s-1.3431458-3-3-3-3 1.3431458-3 3 1.3431458 3 3 3zm0-4c.5522847 0 1 .4477153 1 1s-.4477153 1-1 1-1-.4477153-1-1 .4477153-1 1-1z" fill="#ffffff" data-original="#000000" style=""/><path id="Shape" d="m56 8c2.209139 0 4-1.790861 4-4s-1.790861-4-4-4-4 1.790861-4 4 1.790861 4 4 4zm0-6c1.1045695 0 2 .8954305 2 2s-.8954305 2-2 2-2-.8954305-2-2 .8954305-2 2-2z" fill="#ffffff" data-original="#000000" style=""/><path id="Shape" d="m47 6c1.6568542 0 3-1.34314575 3-3s-1.3431458-3-3-3-3 1.34314575-3 3 1.3431458 3 3 3zm0-4c.5522847 0 1 .44771525 1 1s-.4477153 1-1 1-1-.44771525-1-1 .4477153-1 1-1z" fill="#ffffff" data-original="#000000" style=""/><circle id="Oval" cx="58" cy="20" r="1" fill="#ffffff" data-original="#000000" style=""/><circle id="Oval" cx="58" cy="11" r="1" fill="#ffffff" data-original="#000000" style=""/></g></g></g></svg>
